<svg xmlns="http://www.w3.org/2000/svg" xmlns:xlink="http://www.w3.org/1999/xlink" version="1.2" viewBox="0 0 416.25 416.25" baseProfile="tiny-ps">  <title>bimi-logo</title>  <g id="Layer_2_1_">    <g id="Layer_1-2">      <linearGradient id="SVGID_1_" gradientUnits="userSpaceOnUse" x1="66.7034" y1="60.3266" x2="349.5466" y2="343.1698">        <stop offset="0.01" stop-color="#FFBFF1"/>        <stop offset="0.08" stop-color="#3FA9F5"/>        <stop offset="0.38" stop-color="#BDCCD4"/>        <stop offset="0.56" stop-color="#FCD4FF"/>        <stop offset="0.66" stop-color="#C9BFFF"/>        <stop offset="0.96" stop-color="#BDCCD4"/>      </linearGradient>      <path d="M233.215,17.81c-4.846-13.857-20.007-21.162-33.864-16.316    c-7.639,2.671-13.644,8.677-16.316,16.316C84.415,30.16,8.125,114.29,8.125,216.25c0,110.46,89.54,200,200,200s200-89.54,200-200    C408.125,114.29,331.835,30.16,233.215,17.81z" fill="url(#SVGID_1_)"/>      <path d="M204.865,230.64h-27.58v37.84h-18.26V164h68.1c18.448-0.017,33.448,14.863,33.58,33.31c0,17.85-13.73,32.11-32.51,32.91    l35.84,38.24h-23.59L204.865,230.64z M226.315,213.05c8.756,0.22,16.033-6.7,16.253-15.457c0.22-8.756-6.7-16.033-15.457-16.253    c-0.265-0.007-0.531-0.007-0.796,0h-49v31.71L226.315,213.05z"/>      <path d="M208.125,398.25c-100.35,0-182-81.65-182-182C26.127,125.453,93.049,48.547,182.975,36    c5.575,13.89,21.354,20.631,35.244,15.056c6.863-2.754,12.302-8.193,15.056-15.056c89.926,12.547,156.848,89.453,156.85,180.25    C390.125,316.6,308.485,398.25,208.125,398.25z M208.125,125.75c-49.982,0-90.5,40.518-90.5,90.5s40.518,90.5,90.5,90.5    s90.5-40.518,90.5-90.5C298.57,166.291,258.084,125.805,208.125,125.75z"/>      <path d="M233.595,36.54c99.242,14.067,168.291,105.922,154.224,205.164S281.897,409.995,182.655,395.928    C83.413,381.861,14.364,290.006,28.431,190.764c11.341-80.01,74.214-142.883,154.224-154.224    c5.886,14.067,22.061,20.698,36.128,14.812C225.474,48.552,230.795,43.231,233.595,36.54 M208.125,307.25    c50.258,0,91-40.742,91-91s-40.742-91-91-91s-91,40.742-91,91C117.18,266.485,157.89,307.195,208.125,307.25 M232.955,35.44    c-5.269,13.713-20.658,20.558-34.371,15.289c-7.031-2.702-12.587-8.258-15.289-15.289c-89.04,12.11-157.67,88.44-157.67,180.81    c0,100.792,81.708,182.5,182.5,182.5s182.5-81.708,182.5-182.5C390.625,123.88,321.995,47.55,232.955,35.44z M208.125,306.25    c-49.706,0-90-40.294-90-90s40.294-90,90-90s90,40.294,90,90l0,0C298.125,265.956,257.831,306.25,208.125,306.25z"/>    </g>  </g></svg>